<?xml version="1.0" encoding="UTF-8" standalone="no"?>
<svg
   viewBox="-99.5 70.5 141 47"
   enable-background="new -99.5 70.5 141 47"
   version="1.1"
   id="svg6"
   sodipodi:docname="logo.svg"
   inkscape:version="1.3 (0e150ed6c4, 2023-07-21)"
   xmlns:inkscape="http://www.inkscape.org/namespaces/inkscape"
   xmlns:sodipodi="http://sodipodi.sourceforge.net/DTD/sodipodi-0.dtd"
   xmlns="http://www.w3.org/2000/svg"
   xmlns:svg="http://www.w3.org/2000/svg">
  <defs
     id="defs6">
    <linearGradient
       id="Shape_2_"
       gradientUnits="userSpaceOnUse"
       x1="-115.577"
       y1="2.243"
       x2="-114.586"
       y2="1.735"
       gradientTransform="matrix(39.8,0,0,45.8,4501.6,2.3)">
      <stop
         offset="0"
         stop-color="#FF4C61"
         id="stop1" />
      <stop
         offset="1"
         stop-color="#F51C2B"
         id="stop2" />
    </linearGradient>
  </defs>
  <sodipodi:namedview
     id="namedview6"
     pagecolor="#ffffff"
     bordercolor="#666666"
     borderopacity="1.0"
     inkscape:showpageshadow="2"
     inkscape:pageopacity="0.0"
     inkscape:pagecheckerboard="0"
     inkscape:deskcolor="#d1d1d1"
     inkscape:zoom="14.617021"
     inkscape:cx="92.255459"
     inkscape:cy="23.5"
     inkscape:window-width="2558"
     inkscape:window-height="1421"
     inkscape:window-x="1920"
     inkscape:window-y="17"
     inkscape:window-maximized="1"
     inkscape:current-layer="svg6" />
  <style
     type="text/css"
     id="style1">.st0{fill:url(#Shape_2_);} .st1{fill:#FF6169;} .st2{fill:#FFFFFF;} .st3{fill:#FFB4B5;} .st4{opacity:0.9;} .st5{fill:#FFFFFF;}</style>
  <title
     id="title1">Page-1_12_</title>
  <desc
     id="desc1">Created with Sketch Beta.</desc>
  <path
     id="Shape"
     class="st0"
     d="M -78.4,116.3 -98.3,105 -98.5,82.1 -78.8,70.5 -59,81.7 l 0.2,22.9 z"
     style="fill:url(#Shape_2_)" />
  <g
     id="Shape_1_">
    <path
       class="st1"
       d="m -85.2,98.9 v 5.3 l 12.5,-7 v -5.4 z"
       id="path2" />
    <path
       class="st2"
       d="m -85.2,88.2 -4.7,-2.6 v 16 l 4.6,2.6 v -5.3 l 4.6,2.7 0.1,-5.4 -4.7,-2.6 0.1,-5.4"
       id="path3" />
    <path
       class="st3"
       d="m -80.6,96.2 v 5.4 l 12.4,-7.1 v -5.3 z m 7.8,-15 -12.5,7 v 5.4 l 12.5,-7.1 z"
       id="path4" />
    <path
       class="st1"
       d="m -72.7,86.5 -12.5,7.1 4.6,2.6 12.4,-7.1 z m -0.1,-5.3 -4.6,-2.7 -12.5,7.1 4.6,2.6 z"
       id="path5" />
  </g>
  <path
     class="st5"
     d="m -43.4,78.2 v 10.3 h -2.8 V 78.2 h -2.3 v -2.4 h 7.5 v 2.4 z m 10,5.7 v 4.6 h -2.8 v -4.6 l -3.2,-8.2 h 3.1 l 1.5,5.3 1.5,-5.3 h 3.1 z m 13.8,-4.1 c 0,0.7 -0.1,1.3 -0.3,1.8 -0.2,0.5 -0.5,0.9 -0.9,1.3 -0.4,0.4 -0.8,0.6 -1.2,0.7 -0.4,0.1 -0.9,0.2 -1.4,0.2 h -1.2 v 4.6 h -2.8 V 75.8 h 4 c 0.5,0 0.9,0.1 1.4,0.2 0.5,0.1 0.9,0.4 1.3,0.7 0.4,0.3 0.7,0.7 0.9,1.2 0.1,0.5 0.2,1.1 0.2,1.9 z m -2.7,0 c 0,-0.6 -0.1,-1 -0.4,-1.2 -0.3,-0.3 -0.6,-0.4 -1,-0.4 h -0.9 v 3.3 h 0.9 c 0.4,0 0.7,-0.1 1,-0.4 0.3,-0.3 0.4,-0.7 0.4,-1.3 z m 5.6,8.7 V 75.8 h 6.2 v 2.5 H -14 v 2.5 h 3.1 v 2.4 H -14 v 2.7 h 3.6 v 2.6 z m 9.8,0 V 75.8 H -4 v 10.1 h 3.4 v 2.7 h -6.3 z m 9.4,0 V 75.8 h 6.2 v 2.5 H 5.3 v 2.5 h 3.1 v 2.4 H 5.3 v 2.7 h 3.6 v 2.6 z m 15.5,0 H 14.3 L 11.2,75.8 h 3.3 l 1.7,9.3 1.7,-9.3 H 21 Z m 6,0 V 75.8 h 6.2 v 2.5 h -3.4 v 2.5 h 3.1 v 2.4 h -3.1 v 2.7 h 3.6 v 2.6 z m 9.9,0 V 75.8 h 2.9 v 10.1 h 3.4 v 2.7 h -6.3 z m -76,13.3 c -0.2,-0.3 -0.5,-0.4 -0.8,-0.6 -0.3,-0.1 -0.6,-0.2 -0.9,-0.2 -0.3,0 -0.6,0.1 -0.9,0.3 -0.3,0.2 -0.4,0.5 -0.4,1 0,0.4 0.1,0.7 0.4,0.9 0.3,0.2 0.7,0.5 1.2,0.7 0.3,0.1 0.6,0.3 0.9,0.5 0.3,0.2 0.6,0.4 0.9,0.7 0.3,0.3 0.5,0.6 0.7,1 0.2,0.4 0.3,0.9 0.3,1.4 0,0.7 -0.1,1.3 -0.3,1.8 -0.2,0.5 -0.5,1 -0.9,1.3 -0.4,0.3 -0.8,0.6 -1.3,0.8 -0.5,0.2 -1,0.3 -1.5,0.3 -0.8,0 -1.5,-0.1 -2.1,-0.4 -0.6,-0.3 -1.1,-0.6 -1.5,-1 l 1.5,-2.2 c 0.3,0.3 0.6,0.5 1,0.7 0.4,0.2 0.7,0.3 1.1,0.3 0.3,0 0.6,-0.1 0.9,-0.3 0.2,-0.2 0.4,-0.5 0.4,-1 0,-0.4 -0.1,-0.8 -0.4,-1 -0.3,-0.2 -0.7,-0.5 -1.3,-0.8 l -1,-0.6 c -0.3,-0.2 -0.6,-0.4 -0.8,-0.7 -0.2,-0.3 -0.4,-0.6 -0.5,-1 -0.1,-0.4 -0.2,-0.8 -0.2,-1.4 0,-0.7 0.1,-1.3 0.4,-1.8 0.2,-0.5 0.5,-0.9 0.9,-1.3 0.4,-0.3 0.8,-0.6 1.3,-0.7 0.5,-0.2 0.9,-0.2 1.4,-0.2 0.7,0 1.3,0.1 1.9,0.3 0.6,0.2 1,0.5 1.4,0.9 z m 10.8,9.5 c -0.6,0.3 -1.3,0.5 -2.2,0.5 -0.7,0 -1.4,-0.2 -2,-0.5 -0.6,-0.3 -1.1,-0.8 -1.6,-1.4 -0.5,-0.6 -0.8,-1.3 -1,-2.1 -0.2,-0.8 -0.4,-1.7 -0.4,-2.7 0,-1 0.1,-1.9 0.4,-2.7 0.2,-0.8 0.6,-1.5 1,-2.1 0.4,-0.6 1,-1 1.6,-1.4 0.6,-0.3 1.3,-0.5 2,-0.5 0.9,0 1.6,0.2 2.1,0.5 0.5,0.3 1,0.7 1.4,1.1 l -1.5,2.1 c -0.2,-0.3 -0.5,-0.5 -0.7,-0.7 -0.2,-0.2 -0.6,-0.3 -1,-0.3 -0.4,0 -0.7,0.1 -1,0.3 -0.3,0.2 -0.5,0.5 -0.7,0.8 -0.2,0.4 -0.3,0.8 -0.4,1.3 -0.1,0.5 -0.1,1 -0.1,1.6 0,0.6 0,1.1 0.1,1.5 0.1,0.5 0.2,0.9 0.4,1.3 0.2,0.4 0.4,0.6 0.7,0.8 0.3,0.2 0.6,0.3 1,0.3 0.4,0 0.7,-0.1 1,-0.3 0.3,-0.2 0.5,-0.4 0.7,-0.7 l 1.6,2 c -0.3,0.6 -0.8,1 -1.4,1.3 z m 9.8,0.2 -0.5,-2.3 h -2.9 l -0.5,2.3 h -2.9 l 3.1,-12.7 h 3.6 l 3.1,12.7 z m -1.9,-10 -1.2,5.4 h 2.2 z m 7.8,10 V 98.8 h 2.9 v 10.1 h 3.4 v 2.7 h -6.3 z m 15.1,0 -0.5,-2.3 h -2.9 l -0.5,2.3 h -2.9 l 3.1,-12.7 h 3.6 l 3.1,12.7 z m -2,-10 -1.2,5.4 h 2.2 z"
     id="path6"
     style="fill:#21303f;fill-opacity:1" />
</svg>
